<svg xmlns="http://www.w3.org/2000/svg" width="20" height="20" viewBox="0 0 20 20" fill="none">
<path d="M16.6494 7.3457L16.6885 7.37109C16.7099 7.39261 16.7236 7.42326 16.7236 7.45898C16.7236 7.4767 16.7198 7.4931 16.7139 7.50781L16.6885 7.54688L11.2549 12.9805C10.9102 13.3251 10.4552 13.501 10 13.501C9.60173 13.5009 9.20399 13.366 8.87988 13.1016L8.74512 12.9805L3.3125 7.54688C3.291 7.52537 3.27738 7.49478 3.27734 7.45898C3.27734 7.44091 3.28101 7.42413 3.28711 7.40918L3.3125 7.37109C3.33403 7.34957 3.36454 7.33594 3.40039 7.33594C3.41816 7.33595 3.43446 7.33977 3.44922 7.3457L3.48828 7.37109L8.92188 12.8037C9.47984 13.3617 10.364 13.3972 10.9629 12.9092L11.0791 12.8037L16.5117 7.37109C16.5332 7.34957 16.5647 7.33594 16.6006 7.33594C16.6184 7.33598 16.6347 7.33975 16.6494 7.3457Z" fill="#868686" stroke="#868686"/>
</svg>